<?xml version="1.0" encoding="UTF-8"?>
<svg width="15px" height="14px" viewBox="0 0 15 14" version="1.1" xmlns="http://www.w3.org/2000/svg" xmlns:xlink="http://www.w3.org/1999/xlink">
    <!-- Generator: Sketch 64 (93537) - https://sketch.com -->
    <title>icon_tihuan</title>
    <desc>Created with Sketch.</desc>
    <g id="5考试系统" stroke="none" stroke-width="1" fill="none" fill-rule="evenodd">
        <g id="5.22试卷管理-试卷修改" transform="translate(-1138.000000, -271.000000)" fill-rule="nonzero">
            <g id="icon_tihuan" transform="translate(1137.500000, 270.000000)">
                <rect id="矩形" fill="#000000" opacity="0" x="0" y="0" width="16" height="16"></rect>
                <path d="M9.696,2.15 C11.32,2.313 12.623,3.29 12.901,4.966 L11.961,4.966 L13.478,7.223 L14.996,4.966 L13.949,4.966 C13.671,2.709 11.962,1.242 9.803,1.033 C9.504,1.009 9.227,1.265 9.227,1.591 C9.247,1.871 9.439,2.126 9.696,2.15 Z M7.346,1.009 L2.069,1.009 C1.77,1.009 1.535,1.265 1.535,1.591 L1.535,6.618 C1.535,6.944 1.77,7.2 2.069,7.2 L7.346,7.2 C7.645,7.2 7.88,6.944 7.88,6.618 L7.88,1.591 C7.88,1.265 7.645,1.009 7.346,1.009 Z M6.833,6.083 L2.582,6.083 L2.582,2.126 L6.834,2.126 L6.834,6.083 L6.833,6.083 L6.833,6.083 Z M6.32,13.81 C4.504,13.647 3.115,12.437 3.051,10.435 L4.055,10.435 L2.539,8.178 L1.022,10.435 L2.026,10.435 C2.068,13.019 3.884,14.694 6.214,14.927 C6.513,14.95 6.79105358,14.694 6.79105358,14.368 C6.79481962,14.0906771 6.59402753,13.852796 6.32,13.81 L6.32,13.81 Z M13.97,8.759 L8.692,8.759 C8.392,8.759 8.158,9.016 8.158,9.341 L8.158,14.392 C8.158,14.717 8.392,14.973 8.692,14.973 L13.969,14.973 C14.268,14.973 14.5020029,14.717 14.5020029,14.392 L14.5020029,9.341 C14.503,9.016 14.247,8.759 13.97,8.759 L13.97,8.759 Z M13.456,13.833 L9.205,13.833 L9.205,9.899 L13.456,9.899 L13.456,13.833 L13.456,13.833 Z" id="形状" fill="#FFFFFF"></path>
            </g>
        </g>
    </g>
</svg>