<?xml version="1.0" encoding="UTF-8"?>
<svg width="25px" height="22px" viewBox="0 0 25 22" version="1.1" xmlns="http://www.w3.org/2000/svg" xmlns:xlink="http://www.w3.org/1999/xlink">
    <!-- Generator: Sketch 64 (93537) - https://sketch.com -->
    <title>icon_ri</title>
    <desc>Created with Sketch.</desc>
    <g id="4培训系统" stroke="none" stroke-width="1" fill="none" fill-rule="evenodd">
        <g id="4.26我的学分备份" transform="translate(-448.000000, -150.000000)" fill="#FFCD09" fill-rule="nonzero">
            <g id="编组-4" transform="translate(356.500000, 149.000000)">
                <g id="icon_ri" transform="translate(92.000000, 1.000000)">
                    <path d="M4.79419205,17.5417218 L19.1317224,17.5417218 L19.1317224,19.1354703 L4.79419205,19.1354703 L4.79419205,17.5417218 Z M8.77672129,19.9312394 L15.1491932,19.9312394 L15.1491932,21.5250445 L8.77672129,21.5250445 L8.77672129,19.9312394 Z M23.9107859,11.966946 L23.9107859,10.3731408 L21.0856101,10.3731408 C20.8429858,8.95128661 20.2704583,7.61648471 19.4459551,6.45828111 L21.7499506,4.15587251 L20.6236265,3.0287833 L18.4239125,5.2277606 C16.9117755,3.69309547 14.9158352,2.66087966 12.7596756,2.45240186 L12.7596756,0.0193014887 L11.1662389,0.0193014887 L11.1662389,2.45160843 C9.07698372,2.65149999 7.19578132,3.6253409 5.77619411,5.10483324 L3.70056921,3.02875494 L2.57421677,4.15584418 L4.77356246,6.35479315 C3.98405593,7.52390662 3.44269944,8.89132479 3.22178157,10.3731125 L0.0150719237,10.3731125 L0.0150719237,11.9669176 L3.10783714,11.9669176 C3.12107068,13.0644226 3.33688782,14.1308416 3.74018483,15.152941 L0.811634457,15.152941 L0.811634457,16.7451593 L23.11428,16.7451593 L23.11428,15.152941 L20.5831892,15.152941 C20.9860894,14.13087 21.2023883,13.064451 21.2163302,11.9669176 L23.9107859,11.9669176 L23.9107859,11.966946 Z M5.47088764,15.1529693 C4.956735,14.1098437 4.69461465,13.0014854 4.69461465,11.8557786 C4.69461465,7.5986322 8.02294816,4.00185909 11.9631131,4.00185909 C16.0468067,4.00185909 19.6294961,7.67174251 19.6294961,11.8557786 C19.6294961,13.0015138 19.3666106,14.109872 18.8532231,15.1529693 L5.47088764,15.1529693 Z" id="形状"></path>
                </g>
            </g>
        </g>
    </g>
</svg>