<?xml version="1.0" encoding="UTF-8"?>
<svg width="17px" height="12px" viewBox="0 0 17 12" version="1.1" xmlns="http://www.w3.org/2000/svg" xmlns:xlink="http://www.w3.org/1999/xlink">
    <!-- Generator: Sketch 64 (93537) - https://sketch.com -->
    <title>icon_shipin</title>
    <desc>Created with Sketch.</desc>
    <g id="4培训系统" stroke="none" stroke-width="1" fill="none" fill-rule="evenodd">
        <g id="4.13课程管理弹窗" transform="translate(-504.000000, -855.000000)" fill="#3372F1" fill-rule="nonzero">
            <g id="编组备份-3" transform="translate(24.000000, 629.000000)">
                <g id="编组-2备份-6">
                    <path d="M495.79026,227.662987 C495.427922,227.435065 492.71039,228.712987 492.71039,228.712987 L492.71039,228.578571 C492.71039,227.462338 491.775325,226.558442 490.62013,226.558442 L482.570779,226.558442 C481.415584,226.56039 480.480519,227.464286 480.480519,228.580519 L480.480519,235.371429 C480.480519,236.487662 481.415584,237.391558 482.570779,237.391558 L490.622078,237.391558 C491.777273,237.391558 492.712338,236.487662 492.712338,235.371429 L492.712338,235.205844 C492.712338,235.205844 495.445455,236.474026 495.792208,236.255844 C496.137013,236.037662 496.154545,227.890909 495.79026,227.662987 Z M484.916234,235.221429 L484.916234,228.712987 L490.216883,231.966234 L484.916234,235.221429 Z" id="icon_shipin"></path>
                </g>
            </g>
        </g>
    </g>
</svg>