<?xml version="1.0" encoding="UTF-8"?>
<svg width="13px" height="12px" viewBox="0 0 13 12" version="1.1" xmlns="http://www.w3.org/2000/svg" xmlns:xlink="http://www.w3.org/1999/xlink">
    <!-- Generator: Sketch 64 (93537) - https://sketch.com -->
    <title>icon_nor_zant</title>
    <desc>Created with Sketch.</desc>
    <g id="4培训系统" stroke="none" stroke-width="1" fill="none" fill-rule="evenodd">
        <g id="4.2参培人员-模拟题" transform="translate(-1304.000000, -159.000000)" fill-rule="nonzero">
            <g id="编组-12" transform="translate(1053.000000, 108.000000)">
                <g id="编组-2" transform="translate(58.500000, 0.000000)">
                    <g id="编组-9备份-2" transform="translate(180.500000, 42.500000)">
                        <g id="icon_nor_zant" transform="translate(11.000000, 8.500000)">
                            <rect id="矩形" fill="#000000" opacity="0" x="0" y="0" width="16" height="12"></rect>
                            <path d="M1.7176575,0 L4.7176575,0 C5.05099083,0 5.2176575,0.125 5.2176575,0.375 L5.2176575,11.625 C5.2176575,11.875 5.05099083,12 4.7176575,12 L1.7176575,12 C1.38432417,12 1.2176575,11.875 1.2176575,11.625 L1.2176575,0.375 C1.2176575,0.125 1.38432417,0 1.7176575,0 Z M9.7176575,0 L12.7176575,0 C13.0509908,0 13.2176575,0.125 13.2176575,0.375 L13.2176575,11.625 C13.2176575,11.875 13.0509908,12 12.7176575,12 L9.7176575,12 C9.38432417,12 9.2176575,11.875 9.2176575,11.625 L9.2176575,0.375 C9.2176575,0.125 9.38432417,0 9.7176575,0 Z" id="形状" fill="#4573D0"></path>
                        </g>
                    </g>
                </g>
            </g>
        </g>
    </g>
</svg>