<?xml version="1.0" encoding="UTF-8"?>
<svg width="28px" height="28px" viewBox="0 0 28 28" version="1.1" xmlns="http://www.w3.org/2000/svg" xmlns:xlink="http://www.w3.org/1999/xlink">
    <!-- Generator: Sketch 64 (93537) - https://sketch.com -->
    <title>icon_guli</title>
    <desc>Created with Sketch.</desc>
    <g id="4培训系统" stroke="none" stroke-width="1" fill="none" fill-rule="evenodd">
        <g id="4.221课件查看状态页备份" transform="translate(-1080.000000, -102.000000)" fill-rule="nonzero">
            <g id="编组" transform="translate(1080.000000, 102.000000)">
                <g id="icon_guli">
                    <rect id="矩形" fill="#000000" opacity="0" x="0" y="0" width="28" height="28"></rect>
                    <path d="M0.00546820312,14.0013671 C0.00546820312,19.002597 2.67359248,23.623924 7.00478462,26.124539 C11.3359768,28.625154 16.6722255,28.625154 21.0034177,26.124539 C25.3346098,23.623924 28.0027341,19.002597 28.0027341,14.0013671 C28.0027341,9.00013714 25.3346098,4.3788101 21.0034177,1.87819512 C16.6722255,-0.622419851 11.3359768,-0.622419851 7.00478462,1.87819512 C2.67359248,4.3788101 0.00546820312,9.00013714 0.00546820312,14.0013671 Z" id="路径" fill="#4AAFA7"></path>
                    <path d="M21.3561176,13.4600137 C21.3561176,12.6343131 20.6862611,11.9644566 19.8605605,11.9644566 L16.0984279,11.9644566 C16.4265209,10.9254956 16.9924812,8.55502394 15.5352016,6.97470949 C14.556391,5.9166097 13.6404648,7.1168831 13.6404648,7.11688313 C13.6404648,7.11688316 14.6384142,11.393028 10.4634313,13.2850307 L10.4634313,20.3691046 L18.3732057,20.3691046 C19.1989063,20.3691046 19.8687628,19.6992481 19.8687628,18.8735475 L19.8687628,18.7477785 C20.3417635,18.4962406 20.6643882,17.998633 20.6643883,17.4244703 L20.6643883,17.2850308 C20.6643883,17.1209843 20.6370472,16.9651401 20.5905673,16.8202324 C20.9460014,16.5468216 21.1756664,16.1175667 21.1756664,15.6336295 L21.1756664,15.49419 C21.1756664,15.1852358 21.0799727,14.8954204 20.9186603,14.657553 C21.189337,14.3868763 21.3588517,14.0123035 21.3588517,13.5994532 L21.3561176,13.4600137 Z" id="路径" fill="#FFFFFF"></path>
                    <path d="M10.3786739,20.9077239 L6.73957621,20.9077239 C6.531784,20.9077239 6.36226932,20.7053999 6.36226932,20.4538619 L6.36226932,12.885851 C6.36226932,12.6370472 6.53178403,12.4319891 6.73957621,12.4319891 L10.3814081,12.4319891 C10.5892003,12.4319891 10.758715,12.634313 10.758715,12.885851 L10.758715,20.4538619 C10.7559809,20.7026657 10.5864662,20.9077239 10.3786739,20.9077239 Z" id="路径" fill="#4197E5"></path>
                    <path d="M21.3561176,13.4600137 C21.3561176,12.6343131 20.6862611,11.9644566 19.8605605,11.9644566 L18.4005468,11.9644566 C18.4224197,12.2077922 18.4360902,12.456596 18.4360902,12.708134 C18.4360902,16.380041 15.9425837,19.4695831 12.557758,20.3718387 L18.3732057,20.3718387 C19.1989063,20.3718387 19.8687628,19.7019822 19.8687628,18.8762816 L19.8687628,18.7505126 C20.3417635,18.4989747 20.6643882,18.0013671 20.6643883,17.4272044 L20.6643883,17.2877649 C20.6643883,17.1237184 20.6370472,16.9678742 20.5905673,16.8229665 C20.9460014,16.5495557 21.1756664,16.1203008 21.1756664,15.6363636 L21.1756664,15.4969241 C21.1756664,15.1879699 21.0799727,14.8981545 20.9186603,14.6602871 C21.189337,14.3896104 21.3588517,14.0150376 21.3588517,13.6021873 L21.3561176,13.4600137 Z" id="路径" fill="#EAEAEA"></path>
                    <path d="M18.7067669,4.06015036 C18.6438824,3.87423102 18.5399863,3.87423102 18.4771018,4.06015036 L18.1244019,5.10184552 C18.0615174,5.28776486 17.8591934,5.49008884 17.6732741,5.55297334 L16.6370472,5.90567327 C16.4511278,5.96855774 16.4511278,6.07245384 16.6370472,6.13533834 L17.6650718,6.4935065 C17.8509911,6.55639097 18.050581,6.76144908 18.1161996,6.94463432 L18.4743677,7.98906358 C18.5372522,8.17498292 18.6411483,8.17498292 18.7040328,7.98906358 L19.0539986,6.95010252 C19.1168831,6.76418318 19.316473,6.5618592 19.5023924,6.4989747 L20.5550239,6.13807245 C20.7409433,6.07518797 20.7409433,5.97402597 20.5550239,5.90840739 L19.5215311,5.56117568 C19.3356118,5.4982912 19.1332878,5.2987013 19.0704033,5.11278195 L18.7067669,4.06015036 Z" id="路径" fill="#FFFFFF"></path>
                </g>
            </g>
        </g>
    </g>
</svg>