<?xml version="1.0" encoding="UTF-8"?>
<svg width="21px" height="22px" viewBox="0 0 21 22" version="1.1" xmlns="http://www.w3.org/2000/svg" xmlns:xlink="http://www.w3.org/1999/xlink">
    <!-- Generator: Sketch 64 (93537) - https://sketch.com -->
    <title>icon_zxuefen</title>
    <desc>Created with Sketch.</desc>
    <g id="4培训系统" stroke="none" stroke-width="1" fill="none" fill-rule="evenodd">
        <g id="4.26我的学分备份" transform="translate(-1259.000000, -149.000000)" fill="#0EAFE9" fill-rule="nonzero">
            <g id="编组-4备份-2" transform="translate(1166.500000, 149.000000)">
                <g id="icon_zxuefen" transform="translate(93.000000, 0.100000)">
                    <path d="M7.96540678,7.60699543 C10.421546,7.60699543 12.9759473,7.06686224 14.5101881,6.0368551 L14.5101881,7.91183321 L15.9313969,7.91183321 L15.9313969,3.80657481 C15.9313969,1.33853743 11.828395,0.00594904933 7.96786844,0.00594904933 C4.10734184,0.00594904933 0.00187831319,1.33853743 0.00187831319,3.80657481 L0.00187831319,15.0113127 C0.00187831319,17.4793501 4.10488018,18.8119384 7.96540678,18.8119384 L7.96540678,17.3931913 C3.91040762,17.3931913 1.42062543,16.0054203 1.42062543,15.0115178 L1.42062543,11.6431217 C2.95486627,12.6706671 5.50701098,13.213262 7.96540678,13.213262 L7.96540678,11.7918481 C3.91040762,11.7918481 1.42062543,10.4042822 1.42062543,9.41037972 L1.42062543,6.03952194 C2.95486627,7.06686224 5.50947266,7.60699543 7.96540678,7.60699543 Z M7.96540678,1.4249013 C12.0206111,1.4249013 14.5101881,2.81267229 14.5101881,3.80657481 C14.5101881,4.80047731 12.0204059,6.18824831 7.96540678,6.18824831 C3.91040762,6.18824831 1.42062543,4.80047731 1.42062543,3.80657481 C1.42083058,2.81267231 3.91286931,1.4249013 7.96540678,1.4249013 L7.96540678,1.4249013 Z M14.332537,8.38488567 C10.8057729,8.38488567 8.96177096,9.7414754 8.96177096,11.0810386 L8.96177096,18.2812417 C8.96177096,19.6208048 10.8080295,20.9773946 14.332537,20.9773946 C17.8330432,20.9773946 19.6743783,19.640088 19.7030979,18.3099613 L19.7055596,18.3099613 L19.7055596,11.0812437 C19.7030979,9.74147542 17.8593011,8.38488567 14.332537,8.38488567 L14.332537,8.38488567 Z M14.332537,9.80383794 C16.9398643,9.80383794 18.2843508,10.6992733 18.2843508,11.0810386 C18.2843508,11.4628038 16.9398644,12.3582392 14.332537,12.3582392 C11.7252097,12.3582392 10.3807232,11.4628038 10.3807232,11.0810386 C10.3807232,10.6992733 11.7252097,9.80383794 14.332537,9.80383794 L14.332537,9.80383794 Z M14.332537,19.5584423 C11.7252097,19.5584423 10.3807232,18.6630069 10.3807232,18.2812417 L10.3807232,16.5621698 C11.2810819,17.0520438 12.6040288,17.3786264 14.332537,17.3786264 C16.0610453,17.3786264 17.3815304,17.0522489 18.2843508,16.5621698 L18.2843508,18.2812417 C18.2843508,18.6630069 16.9398644,19.5584423 14.332537,19.5584423 L14.332537,19.5584423 Z M14.332537,15.9572125 C11.7252097,15.9572125 10.3807232,15.0615719 10.3807232,14.6800118 L10.3807232,12.96094 C11.2810819,13.4508139 12.6040288,13.7771914 14.332537,13.7771914 C16.0610453,13.7771914 17.3815304,13.4508139 18.2843508,12.96094 L18.2843508,14.6800118 C18.2843508,15.0615719 16.9398644,15.9572125 14.332537,15.9572125 L14.332537,15.9572125 Z" id="形状"></path>
                </g>
            </g>
        </g>
    </g>
</svg>