<?xml version="1.0" encoding="UTF-8"?>
<svg width="24px" height="20px" viewBox="0 0 24 20" version="1.1" xmlns="http://www.w3.org/2000/svg" xmlns:xlink="http://www.w3.org/1999/xlink">
    <!-- Generator: Sketch 64 (93537) - https://sketch.com -->
    <title>icon_peixunxuefen</title>
    <desc>Created with Sketch.</desc>
    <g id="4培训系统" stroke="none" stroke-width="1" fill="none" fill-rule="evenodd">
        <g id="4.26我的学分备份" transform="translate(-853.000000, -151.000000)" fill="#EA5901" fill-rule="nonzero">
            <g id="编组-4备份" transform="translate(761.500000, 149.000000)">
                <g id="icon_peixunxuefen" transform="translate(91.731971, 2.515613)">
                    <path d="M23.688498,7.40090352 L11.8506203,0 L0.0127426025,7.40090352 L4.46245939,10.1813394 L4.46245939,14.7508366 L11.8506203,19.3687558 L19.2387812,14.7508366 L19.2387812,10.1813394 L20.8093852,9.16271533 L20.8459646,16.099004 L22.5175835,16.099004 L22.4783749,8.19833511 L23.688498,7.40090352 Z M11.8506203,17.6354268 L5.74547167,13.8599142 L5.74547167,10.7146002 L11.924462,14.5928815 L17.9557689,10.7671488 L17.9557689,13.8599142 L11.8506203,17.6354268 Z M11.8506203,12.954526 L3.00112349,7.40109377 L11.8506203,1.84473249 L20.7001171,7.40109377 L11.8506203,12.954526 Z M20.8223452,17.1872222 L22.5142061,17.1872222 L22.5339218,19.3611102 L20.7833118,19.3611102 L20.8223452,17.1872222 Z" id="形状"></path>
                </g>
            </g>
        </g>
    </g>
</svg>