<?xml version="1.0" encoding="UTF-8"?>
<svg width="78px" height="78px" viewBox="0 0 78 78" version="1.1" xmlns="http://www.w3.org/2000/svg" xmlns:xlink="http://www.w3.org/1999/xlink">
    <!-- Generator: Sketch 61.1 (89650) - https://sketch.com -->
    <title>pic_zhishi</title>
    <desc>Created with Sketch.</desc>
    <defs>
        <linearGradient x1="50%" y1="0%" x2="50%" y2="100%" id="linearGradient-1">
            <stop stop-color="#DCDFE3" offset="0%"></stop>
            <stop stop-color="#EBECF0" offset="100%"></stop>
        </linearGradient>
        <linearGradient x1="50%" y1="0%" x2="50%" y2="100%" id="linearGradient-2">
            <stop stop-color="#DEE0E4" offset="0%"></stop>
            <stop stop-color="#CFD8E0" offset="100%"></stop>
        </linearGradient>
        <linearGradient x1="97.5510015%" y1="50%" x2="-15.5383085%" y2="50%" id="linearGradient-3">
            <stop stop-color="#EEEEEE" offset="0%"></stop>
            <stop stop-color="#9FA8B3" offset="100%"></stop>
        </linearGradient>
        <linearGradient x1="50%" y1="100%" x2="50%" y2="0%" id="linearGradient-4">
            <stop stop-color="#D0D8E0" offset="0%"></stop>
            <stop stop-color="#ACB5BD" offset="100%"></stop>
        </linearGradient>
    </defs>
    <g id="pic_zhishi" stroke="none" stroke-width="1" fill="none" fill-rule="evenodd">
        <g id="pic_tshi" transform="translate(1.000000, 1.000000)">
            <circle id="椭圆形" fill="#F7F7F7" cx="38" cy="38" r="38"></circle>
            <polygon id="路径" stroke="#C2C7CD" points="38.7782961 7 19 25 58 25"></polygon>
            <ellipse id="椭圆形" fill="#C2C7CD" cx="38.5" cy="7" rx="2.5" ry="3"></ellipse>
            <g id="图背" transform="translate(4.000000, 18.000000)" fill="url(#linearGradient-1)">
                <rect id="矩形" x="0" y="0" width="67" height="44"></rect>
            </g>
            <circle id="椭圆形" stroke="url(#linearGradient-2)" stroke-width="5" cx="37.5" cy="41.5" r="13"></circle>
            <g id="放大" transform="translate(28.000000, 23.000000)">
                <polygon id="矩形" fill="url(#linearGradient-3)" transform="translate(9.722122, 19.746512) rotate(-270.000000) translate(-9.722122, -19.746512) " points="1.00102531 16.7553179 18.4442442 16.746512 18.4432189 22.7377061 1 22.746512"></polygon>
                <polygon id="三角形" fill="url(#linearGradient-4)" points="9.5 0 19 12 0 12"></polygon>
            </g>
        </g>
    </g>
</svg>