<?xml version="1.0" encoding="UTF-8"?>
<svg width="25px" height="24px" viewBox="0 0 25 24" version="1.1" xmlns="http://www.w3.org/2000/svg" xmlns:xlink="http://www.w3.org/1999/xlink">
    <!-- Generator: Sketch 63 (92445) - https://sketch.com -->
    <title>head</title>
    <desc>Created with Sketch.</desc>
    <defs>
        <circle id="path-1" cx="12" cy="12" r="12"></circle>
    </defs>
    <g id="26系统顶部菜单" stroke="none" stroke-width="1" fill="none" fill-rule="evenodd">
        <g id="26.3机构管理备份-5" transform="translate(-1127.000000, -16.000000)">
            <g id="head" transform="translate(1127.139620, 16.000000)">
                <mask id="mask-2" fill="white">
                    <use xlink:href="#path-1"></use>
                </mask>
                <use id="蒙版" fill="#E4E7EC" xlink:href="#path-1"></use>
                <g id="编组备份-3" mask="url(#mask-2)">
                    <g transform="translate(2.922390, 3.000000)">
                        <path d="M4.76009253,5.83085438 C4.32665931,11.5282223 9.31406434,11.625 9.31406434,11.625 C13.6316939,11.1769861 13.2909603,6.4949494 13.2492037,5.8125 L4.74673043,5.8125 C4.75257635,5.81917432 4.75424661,5.82334577 4.76009253,5.83085438" id="Fill-1" fill="#E9CCB6"></path>
                        <polygon id="Fill-3" fill="#505255" points="9.46593311 14.4375 10.1164695 13.8141104 8.94555441 12.375 7.88898999 13.8141104 8.52173202 14.4375"></polygon>
                        <path d="M12.3617672,4.35929722 L12.3592485,4.35929722 L5.1651532,4.35929722 L5.1651532,3.51507149 L12.3617672,3.51507149 L12.3617672,4.35929722 Z M8.12288431,1.85581757 C8.11700747,1.81994632 8.11197017,1.78073821 8.11197017,1.7415301 C8.11197017,1.26185639 8.53678197,0.871443702 9.06401874,0.871443702 C9.59041596,0.871443702 10.0152277,1.26185639 10.0152277,1.7415301 C10.0152277,1.80159359 10.0076718,1.86082286 9.99423902,1.92088635 C10.2780066,1.89502568 10.584442,1.87166766 10.8623327,1.86582815 C10.8623327,1.86582815 10.070638,2.23371703 9.61896062,2.44977875 C9.55095715,2.49399216 9.48043504,2.52819498 9.39899879,2.55655829 C9.39396149,2.55906094 9.3889242,2.56406623 9.38052871,2.56740309 C9.38052871,2.56740309 9.35450269,2.57491103 9.31252524,2.57991632 C9.23360763,2.6007717 9.15049228,2.61411914 9.06401874,2.61411914 C9.04806731,2.61411914 9.03211587,2.60827963 9.0136458,2.60827963 C8.8045981,2.60827963 8.53678197,2.56740309 8.32185742,2.38721262 C8.32185742,2.38721262 7.99695196,2.16614561 7.26234659,1.86332551 C7.26234659,1.86582815 7.65357642,1.81660946 8.12288431,1.85581757 L8.12288431,1.85581757 Z M14.6713665,2.30128846 C14.2289242,1.41868884 11.6481505,0.0947894027 8.83314276,0.00385995202 C6.01981407,-0.0895721441 3.03941514,1.53297631 3.06292251,2.72089868 C3.08642988,3.9063184 4.56235702,4.41685806 4.56235702,4.41685806 C4.48595806,4.64543301 4.52541686,5.537209 4.52541686,5.537209 C4.52541686,5.537209 4.59174123,5.65233069 4.70927809,5.8125 L13.2558869,5.8125 C13.2550473,5.81166578 13.2550473,5.81083157 13.2550473,5.80999735 C13.2399354,5.56306967 13.2088721,5.36536068 13.171932,5.18767286 C13.2265027,4.80476811 13.0753838,4.40851591 13.0753838,4.40851591 C13.7092433,4.15825137 15.117167,3.18138544 14.6713665,2.30128846 L14.6713665,2.30128846 Z" id="Fill-5" fill="#2059A7"></path>
                        <path d="M9.18835305,15.1069022 L8.5473087,15.1069022 L8.3866335,18.0079641 C7.62880975,17.3644068 7.06975945,16.2802992 6.7210777,15.1886104 C6.44942067,14.3572085 6.5272736,13.3868185 6.62831676,12.75 L5.91935816,12.8182305 C5.91935816,12.8182305 1.64158805,12.8182305 1.58692535,13.1737033 C1.57450201,13.192235 1.15542134,13.6942771 1.03864194,14.291505 C0.474622299,16.6062896 0.218701493,19.1308199 0.092811647,20.9991576 L9.18835305,21 L9.18835305,15.1069022 Z" id="Fill-7" fill="#505255"></path>
                        <path d="M9.00272975,15.1069022 L9.6437741,15.1069022 L9.8044493,18.0079641 C10.562273,17.3644068 11.1213234,16.2802992 11.4700051,15.1886104 C11.7416621,14.3572085 11.6638092,13.3868185 11.562766,12.75 L12.2717246,12.8182305 C12.2717246,12.8182305 16.5494948,12.8182305 16.6041575,13.1737033 C16.6165808,13.192235 17.0356615,13.6942771 17.1524409,14.291505 C17.7164605,16.6062896 17.9715531,19.1308199 18.0982712,20.9991576 L9.00272975,21 L9.00272975,15.1069022 Z" id="Fill-9" fill="#505255"></path>
                    </g>
                </g>
            </g>
        </g>
    </g>
</svg>