<?xml version="1.0" encoding="UTF-8"?>
<svg width="14px" height="14px" viewBox="0 0 14 14" version="1.1" xmlns="http://www.w3.org/2000/svg" xmlns:xlink="http://www.w3.org/1999/xlink">
    <!-- Generator: Sketch 64 (93537) - https://sketch.com -->
    <title>icon_jcgl</title>
    <desc>Created with Sketch.</desc>
    <g id="页面-1" stroke="none" stroke-width="1" fill="none" fill-rule="evenodd">
        <g id="6.3添加日志" transform="translate(-388.000000, -533.000000)" fill="#4AAFA7" fill-rule="nonzero" stroke="#4AAFA7" stroke-width="0.3">
            <g id="编组备份-4" transform="translate(376.028314, 524.000000)">
                <g id="编组-5" transform="translate(13.000000, 6.000000)">
                    <path d="M6.7685,13.079 L5.6445,14.203 C5.13075,14.71675 4.447,15 3.72,15 C2.993,15 2.3095,14.71675 1.79525,14.203 C0.734,13.14175 0.734,11.415 1.79525,10.35375 L2.91925,9.22975 L2.21225,8.52275 L1.08825,9.64675 C-0.36275,11.098 -0.36275,13.459 1.08825,14.91025 C1.7848901,15.6101984 2.73246339,16.0025677 3.72,16.0000125 C4.71425,16.0000125 5.64875,15.61275 6.35175,14.91 L7.47575,13.786 L6.7685,13.079 L6.7685,13.079 Z M5.228,6.921 L6.35175,5.79725 C6.86101952,5.2851263 7.55401576,4.99804329 8.27625,5 C9.00325,5 9.687,5.283 10.201,5.797 C11.262,6.85825 11.262,8.585 10.201,9.64625 L9.07725,10.77 L9.78425,11.477 L10.908,10.35325 C12.359,8.90225 12.359,6.541 10.908,5.08975 C10.2114864,4.38961282 9.26383063,3.99720934 8.27625,3.99998522 C7.28869781,3.99723074 6.34109805,4.38973834 5.64475,5.09 L4.521,6.21375 L5.228,6.921 L5.228,6.921 Z M9.99825,14.5000005 C9.86560874,14.5001924 9.73837125,14.4474617 9.64475,14.3535 L1.64475,6.3535 C1.51477171,6.22796276 1.4626437,6.04206105 1.50840142,5.86724634 C1.55415914,5.69243162 1.69068162,5.55590914 1.86549634,5.51015142 C2.04031105,5.4643937 2.22621276,5.51652171 2.35175,5.6465 L10.35175,13.6465 C10.494704,13.7894971 10.537461,14.0045183 10.460089,14.1913273 C10.382717,14.3781362 10.2004479,14.5000005 9.99825,14.5000005 Z" id="icon_jcgl"></path>
                </g>
            </g>
        </g>
    </g>
</svg>