<?xml version="1.0" encoding="UTF-8"?>
<svg width="31px" height="39px" viewBox="0 0 31 39" version="1.1" xmlns="http://www.w3.org/2000/svg" xmlns:xlink="http://www.w3.org/1999/xlink">
    <!-- Generator: Sketch 61.1 (89650) - https://sketch.com -->
    <title>icon_wenshu</title>
    <desc>Created with Sketch.</desc>
    <g id="30协同办案" stroke="none" stroke-width="1" fill="none" fill-rule="evenodd">
        <g id="30.2新增移送2" transform="translate(-582.000000, -897.000000)">
            <g id="编组-6备份-2" transform="translate(412.000000, 831.000000)">
                <g id="icon_wenshu" transform="translate(149.000000, 49.000000)">
                    <g transform="translate(21.000000, 17.000000)">
                        <polygon id="Fill-1" fill="#FFFFFF" points="1.05681818 37.5018007 29.9973776 37.5018007 29.9973776 1.45138055 1.05681818 1.45138055"></polygon>
                        <path d="M0,39 L31,39 L31,0 L0,0 L0,39 Z M1.58974359,1.59183673 L29.4102564,1.59183673 L29.4102564,37.4081633 L1.58974359,37.4081633 L1.58974359,1.59183673 Z" id="Fill-2" fill="#000000"></path>
                        <polygon id="Fill-3" fill="#000000" points="3.97435897 26.2653061 27.6759907 26.2653061 27.6759907 25.5162065 3.97435897 25.5162065"></polygon>
                        <polygon id="Fill-4" fill="#296DF6" points="3.97435897 18.7743097 27.6759907 18.7743097 27.6759907 8.28691477 3.97435897 8.28691477"></polygon>
                        <polygon id="Fill-5" fill="#000000" points="3.97435897 29.2617047 27.6759907 29.2617047 27.6759907 28.512605 3.97435897 28.512605"></polygon>
                    </g>
                </g>
            </g>
        </g>
    </g>
</svg>