<?xml version="1.0" encoding="UTF-8"?>
<svg width="29px" height="34px" viewBox="0 0 29 34" version="1.1" xmlns="http://www.w3.org/2000/svg" xmlns:xlink="http://www.w3.org/1999/xlink">
    <!-- Generator: Sketch 64 (93537) - https://sketch.com -->
    <title>icon_yinpin</title>
    <desc>Created with Sketch.</desc>
    <g id="页面-1" stroke="none" stroke-width="1" fill="none" fill-rule="evenodd">
        <g id="5.12记录-查看异常路政文书备份" transform="translate(-326.000000, -1673.000000)" fill-rule="nonzero">
            <g id="icon_yinpin" transform="translate(322.576310, 1672.000000)">
                <rect id="矩形" fill="#000000" opacity="0" x="0" y="0" width="36" height="36"></rect>
                <path d="M5.625,1.125 C5.203125,1.125 4.753125,1.29375 4.44375,1.63125 C4.134375,1.96875 3.9375,2.390625 3.9375,2.8125 L3.9375,33.1875 C3.9375,33.609375 4.10625,34.059375 4.44375,34.36875 C4.78125,34.70625 5.203125,34.875 5.625,34.875 L30.375,34.875 C30.796875,34.875 31.246875,34.70625 31.55625,34.36875 C31.89375,34.03125 32.0625,33.609375 32.0625,33.1875 L32.0625,10.6875 L22.5,1.125 L5.625,1.125 Z" id="路径" fill="#4573D0" opacity="0.504743304"></path>
                <path d="M32.0625,10.6875 L24.1875,10.6875 C23.765625,10.6875 23.315625,10.51875 23.00625,10.18125 C22.66875,9.871875 22.5,9.421875 22.5,9 L22.5,1.125 L32.0625,10.6875 Z" id="路径" fill="#FFFFFF" opacity="0.53234282"></path>
                <path d="M18.0851563,13.21875 C18.3432813,13.21875 18.5525,13.4279844 18.5525,13.6860937 L18.5525,24.3920313 C18.5525,24.6501406 18.3432813,24.859375 18.0851563,24.859375 C17.8270469,24.859375 17.6178125,24.6501406 17.6178125,24.3920313 L17.6178125,13.6860937 C17.6178125,13.4279844 17.8270469,13.21875 18.0851563,13.21875 Z M14.9575,15.09725 C15.2119375,15.09725 15.418875,15.3004375 15.4247344,15.5532969 L15.4248594,15.5643125 L15.4248594,22.5343125 C15.4248594,22.7922812 15.215625,23.0013906 14.9575156,23.0013906 C14.7030937,23.0013906 14.4961406,22.7982031 14.4902812,22.5453438 L14.4901562,22.5343281 L14.4901562,15.5643281 C14.4901562,15.3063594 14.6994062,15.09725 14.9575,15.09725 Z M21.24875,15.09725 C21.5031719,15.09725 21.7101094,15.3004375 21.7159688,15.5532969 L21.7161094,15.5643125 L21.7161094,22.5343125 C21.7161094,22.7922812 21.5068594,23.0013906 21.2487656,23.0013906 C20.9943281,23.0013906 20.7873906,22.7982031 20.7815313,22.5453438 L20.7814062,22.5343281 L20.7814062,15.5643281 C20.7814062,15.3063594 20.9906406,15.09725 21.24875,15.09725 Z M11.8110937,17.5256563 C12.0655156,17.5256563 12.2724531,17.7288281 12.2783281,17.9816875 L12.2784531,17.9927188 L12.2784531,20.1059375 C12.2784531,20.363875 12.0692031,20.573 11.8111094,20.573 C11.5566719,20.573 11.3497344,20.3698125 11.343875,20.1169531 L11.34375,20.1059375 L11.34375,17.9927188 C11.34375,17.73475 11.5529844,17.5256563 11.8110937,17.5256563 Z M24.3764063,17.5256563 C24.6308281,17.5256563 24.8377656,17.7288281 24.843625,17.9816875 L24.84375,17.9927188 L24.84375,20.1059375 C24.84375,20.363875 24.6345156,20.573 24.3764063,20.573 C24.1219844,20.573 23.9150469,20.3698125 23.9091719,20.1169531 L23.9090469,20.1059375 L23.9090469,17.9927188 C23.9090469,17.73475 24.1182969,17.5256563 24.3763906,17.5256563 L24.3764063,17.5256563 Z" id="形状" stroke="#FFFFFF" stroke-width="0.4" fill="#FFFFFF"></path>
            </g>
        </g>
    </g>
</svg>