<?xml version="1.0" encoding="UTF-8"?>
<svg width="15px" height="15px" viewBox="0 0 15 15" version="1.1" xmlns="http://www.w3.org/2000/svg" xmlns:xlink="http://www.w3.org/1999/xlink">
    <!-- Generator: Sketch 64 (93537) - https://sketch.com -->
    <title>icon_jiaojieb</title>
    <desc>Created with Sketch.</desc>
    <g id="页面-1" stroke="none" stroke-width="1" fill="none" fill-rule="evenodd">
        <g id="6日志管理" transform="translate(-507.000000, -250.000000)" fill-rule="nonzero">
            <g id="编组备份-6" transform="translate(487.500000, 241.000000)">
                <g id="编组-2" transform="translate(19.000000, 6.000000)">
                    <g id="icon_jiaojieb" transform="translate(0.000000, 2.000000)">
                        <rect id="矩形" fill="#000000" opacity="0" x="0" y="0" width="16" height="16"></rect>
                        <path d="M14.6314025,13.0627326 C14.8337293,13.0627756 15.0160881,13.1847492 15.0933772,13.3717319 C15.1706663,13.5587147 15.1276499,13.7738469 14.9844025,13.9167326 L14.9809025,13.9207326 L13.9199025,14.9807326 C13.7231109,15.1655335 13.4151573,15.1607508 13.2241994,14.9699279 C13.0332414,14.779105 13.0282409,14.4711549 13.2129025,14.2742326 L13.4244025,14.0627326 L8.13140251,14.0627326 C7.85526013,14.0627326 7.63140251,13.838875 7.63140251,13.5627326 C7.63140251,13.2865902 7.85526013,13.0627326 8.13140251,13.0627326 L14.6314025,13.0627326 Z M9.5493118,10.1548233 C9.7421787,10.3476902 9.74488861,10.6595432 9.55540251,10.8557326 L9.34840251,11.0627326 L14.6314025,11.0627326 C14.9075449,11.0627326 15.1314025,11.2865902 15.1314025,11.5627326 C15.1314025,11.838875 14.9075449,12.0627327 14.6314025,12.0627327 L8.13140251,12.0627327 C7.9137948,12.0628499 7.72109859,11.9222115 7.65485991,11.7149301 C7.58862124,11.5076487 7.66405217,11.2813277 7.84140251,11.1552326 L8.84840251,10.1487326 C9.04459195,9.95924649 9.3564449,9.96195641 9.5493118,10.1548233 Z" id="形状" fill="#FFFFFF"></path>
                        <path d="M7.8625,1.596875 C9.80625,1.596875 11.38125,3.171875 11.38125,5.115625 C11.38125,6.4359375 10.6546875,7.5875 9.578125,8.1890625 C10.0390625,8.3296875 10.484375,8.525 10.9015625,8.771875 C11.08125,8.878125 11.1390625,9.1078125 11.034375,9.2859375 C10.928125,9.4640625 10.6984375,9.5234375 10.5203125,9.4171875 C9.6953125,8.9296875 8.7484375,8.671875 7.784375,8.671875 C4.8125,8.671875 2.3953125,11.090625 2.39375,14.0625 C2.39375,14.2703125 2.2265625,14.4375 2.01875,14.4375 C1.8109375,14.4375 1.64375,14.2703125 1.64375,14.0625 C1.64375,13.234375 1.80625,12.43125 2.1265625,11.6734375 C2.4359375,10.9421875 2.878125,10.2859375 3.4421875,9.721875 C4.00625,9.1578125 4.6625,8.715625 5.39375,8.40625 C5.621875,8.309375 5.8546875,8.2265625 6.090625,8.159375 C5.0453125,7.55 4.3421875,6.415625 4.3421875,5.1171875 C4.3421875,3.1734375 5.91875,1.596875 7.8625,1.596875 Z M7.8609375,2.23106551 C7.09054489,2.23106551 6.36575692,2.53075312 5.82013002,3.07638002 C5.27450312,3.62037818 4.97481551,4.34679489 4.97481551,5.1171875 C4.97481551,5.88758011 5.27613186,6.61236808 5.82013002,7.15799498 C6.36412818,7.70362188 7.09054489,8.00330949 7.8609375,8.00330949 C8.63133011,8.00330949 9.35611808,7.70199314 9.90174498,7.15799498 C10.4473719,6.61399682 10.7470595,5.88758011 10.7470595,5.1171875 C10.7470595,4.34679489 10.4473719,3.62200692 9.90174498,3.07638002 C9.35774682,2.53075312 8.63133011,2.23106551 7.8609375,2.23106551 Z" id="形状结合" stroke="#FFFFFF" stroke-width="0.4" fill="#FFFFFF"></path>
                    </g>
                </g>
            </g>
        </g>
    </g>
</svg>