<?xml version="1.0" encoding="UTF-8"?>
<svg width="12px" height="14px" viewBox="0 0 12 14" version="1.1" xmlns="http://www.w3.org/2000/svg" xmlns:xlink="http://www.w3.org/1999/xlink">
    <!-- Generator: Sketch 64 (93537) - https://sketch.com -->
    <title>icon_daochu</title>
    <desc>Created with Sketch.</desc>
    <g id="页面-1" stroke="none" stroke-width="1" fill="none" fill-rule="evenodd">
        <g id="5.1记录管理" transform="translate(-391.000000, -250.000000)" fill-rule="nonzero">
            <g id="编组备份-4" transform="translate(364.500000, 241.000000)">
                <g id="icon_daochu" transform="translate(26.000000, 9.000000)">
                    <rect id="矩形" fill="#000000" opacity="0" x="0" y="0" width="14" height="14"></rect>
                    <path d="M10.7333333,0.866666672 L3.53333333,0.866666672 C2.504,0.866666672 1.66666667,1.704 1.66666667,2.73333333 L1.66666667,4.6 L2.73333333,4.6 L2.73333333,2.73333333 C2.73333333,2.29333333 3.09333333,1.93333333 3.53333333,1.93333333 L10.7333333,1.93333333 C11.0266667,1.93333333 11.2666667,2.17333333 11.2666667,2.46666667 L11.2666667,11.8 C11.2666667,12.0933333 11.0266667,12.3333333 10.7333333,12.3333333 L3.53333333,12.3333333 C3.09333333,12.3333333 2.73333333,11.9733333 2.73333333,11.5333333 L2.73333333,9.13333333 L1.66666667,9.13333333 L1.66666667,11.5333333 C1.66666667,12.5626667 2.504,13.4 3.53333333,13.4 L10.7333333,13.4 C11.616,13.4 12.3333333,12.6826667 12.3333333,11.8 L12.3333333,2.46666667 C12.3333333,1.584 11.616,0.866666672 10.7333333,0.866666672 Z M4.792,9.01866667 L4.03733333,9.77066667 L1.13333333,6.86666667 L4.03733333,3.96266667 L4.792,4.71466667 L3.04,6.46666667 L8.848,6.46666667 L8.848,7.53333333 L3.30666666,7.53333333 L4.792,9.01866667 Z" id="形状" stroke="#FFFFFF" stroke-width="0.2" fill="#FFFFFF"></path>
                </g>
            </g>
        </g>
    </g>
</svg>