<?xml version="1.0" encoding="UTF-8"?>
<svg width="55px" height="40px" viewBox="0 0 55 40" version="1.1" xmlns="http://www.w3.org/2000/svg" xmlns:xlink="http://www.w3.org/1999/xlink">
    <!-- Generator: Sketch 61.1 (89650) - https://sketch.com -->
    <title>car</title>
    <desc>Created with Sketch.</desc>
    <defs>
        <polygon id="path-1" points="0 0.220612903 54.9997194 0.220612903 54.9997194 34.9998871 0 34.9998871"></polygon>
        <polygon id="path-3" points="0.31024 0.070625 27.68976 0.070625 27.68976 5.00425 0.31024 5.00425"></polygon>
    </defs>
    <g id="22加载loading" stroke="none" stroke-width="1" fill="none" fill-rule="evenodd">
        <g id="22.2局部加载" transform="translate(-793.000000, -351.000000)">
            <g id="car" transform="translate(793.000000, 351.000000)">
                <g id="编组" transform="translate(0.000000, 5.000000)">
                    <mask id="mask-2" fill="white">
                        <use xlink:href="#path-1"></use>
                    </mask>
                    <g id="Clip-2"></g>
                    <path d="M50.7501276,18.8812581 L51.3579337,20.8519839 C51.6172194,21.6919839 51.0268112,22.5545645 50.1541071,22.6098871 L41.446148,23.1698871 C40.4219133,23.235371 39.7018622,22.1735161 40.1368112,21.2386774 L40.8074745,19.7946452 C40.9999745,19.3808548 41.3866582,19.0918226 41.8367602,19.0257742 L49.2656888,17.9396452 C49.9234439,17.8436774 50.5531378,18.2427903 50.7501276,18.8812581 M37.9485969,20.6865806 L36.7116582,24.1487581 C36.5960459,24.4710968 36.3120663,24.7031129 35.9742092,24.7488387 L33.8359439,25.0384355 C29.63125,25.6080323 25.36875,25.6080323 21.1640561,25.0384355 L19.026352,24.7488387 C18.6879337,24.7031129 18.4033929,24.4710968 18.2883418,24.1487581 L17.0514031,20.6865806 C16.8375765,20.0881935 17.278699,19.457629 17.911199,19.457629 L27.4997194,19.457629 L37.088801,19.457629 C37.721301,19.457629 38.1624235,20.0881935 37.9485969,20.6865806 M13.5544133,23.1698871 L4.84589286,22.6098871 C3.97318878,22.5545645 3.38334184,21.6919839 3.64206633,20.8519839 L4.25043367,18.8812581 C4.44686224,18.2427903 5.07655612,17.8436774 5.73431122,17.9396452 L13.1632398,19.0257742 C13.6133418,19.0918226 14.0005867,19.3808548 14.1919643,19.7946452 L14.86375,21.2386774 C15.2981378,22.1735161 14.5780867,23.235371 13.5544133,23.1698871 M8.81262755,10.0663387 L12.6317602,4.29246774 C13.438801,2.77222581 15.0119133,1.82270968 16.7258929,1.82270968 L27.4997194,1.82270968 L38.2746684,1.82270968 C39.9875255,1.82270968 41.5617602,2.77222581 42.3682398,4.29246774 L46.1873724,10.0663387 C46.3933418,10.4547258 46.1132908,10.9244032 45.6755357,10.9244032 L27.4997194,10.9244032 L9.32446429,10.9244032 C8.88670918,10.9244032 8.60665816,10.4547258 8.81262755,10.0663387 M51.0105357,12.1708548 C51.0947194,12.1923065 51.1817092,12.2030323 51.268699,12.2030323 L53.258801,12.2030323 C53.5657908,12.2030323 53.8643622,12.105371 54.1129847,11.9247258 L54.3964031,11.7186774 C54.7757908,11.4420645 54.9997194,11.0006129 54.9997194,10.530371 C54.9997194,10.1081129 54.8195663,9.70674194 54.5035969,9.42843548 C53.9704337,8.95762903 53.2851786,8.69795161 52.5757908,8.69795161 L51.7154337,8.69795161 C50.8230867,8.69795161 49.9975255,9.17722581 49.5507908,9.95456452 C49.3773724,10.2571452 49.0675765,10.4547258 48.721301,10.4852097 L48.2964541,10.5219032 L44.9465051,4.9523871 C43.5698214,2.06093548 40.6649235,0.220612903 37.4777296,0.220612903 L27.4997194,0.220612903 L17.5222704,0.220612903 C14.3350765,0.220612903 11.4301786,2.06093548 10.0534949,4.9523871 L6.70354592,10.5219032 L6.2792602,10.4852097 C5.93298469,10.4547258 5.62318878,10.2571452 5.44920918,9.95456452 C5.00191327,9.17722581 4.17747449,8.69795161 3.28456633,8.69795161 L2.42477041,8.69795161 C1.71482143,8.69795161 1.02956633,8.95762903 0.496403061,9.42843548 C0.180994898,9.70674194 -0.000280612245,10.1081129 -0.000280612245,10.530371 C-0.000280612245,11.0006129 0.224770408,11.4420645 0.603035714,11.7186774 L0.887015306,11.9247258 C1.13619898,12.105371 1.43477041,12.2030323 1.7417602,12.2030323 L3.73186224,12.2030323 C3.81885204,12.2030323 3.90528061,12.1923065 3.99002551,12.1708548 C4.43114796,12.0602097 4.89359694,12.2431129 5.14109694,12.6264194 L5.32854592,12.9171452 L1.08344388,17.7748065 C0.640076531,18.2823065 0.394821429,18.9354516 0.394821429,19.6111774 L0.394821429,25.1355323 C0.394821429,25.9636774 0.658035714,26.7494839 1.11318878,27.4054516 L1.11318878,33.2527097 C1.11318878,34.6075484 3.35303571,34.9998871 4.69997449,34.9998871 L7.31359694,34.9998871 C8.06058673,34.9998871 8.66558673,34.3913387 8.66558673,33.6405323 L8.66558673,32.1931129 L8.91982143,32.1931129 C9.39237245,32.3873065 9.89803571,32.4894839 10.4109949,32.4894839 L19.9927806,32.4894839 L35.0072194,32.4894839 L44.5890051,32.4894839 C45.1025255,32.4894839 45.6081888,32.3873065 46.0807398,32.1931129 L46.3349745,32.1931129 L46.3349745,33.6405323 C46.3349745,34.3913387 46.9399745,34.9998871 47.6864031,34.9998871 L50.3000255,34.9998871 C51.6475255,34.9998871 53.8868112,34.6075484 53.8868112,33.2527097 L53.8868112,27.4054516 C54.3419643,26.7494839 54.6046173,25.9636774 54.6046173,25.1355323 L54.6046173,19.6111774 C54.6046173,18.9354516 54.3604847,18.2823065 53.9165561,17.7748065 L49.6714541,12.9171452 L49.8589031,12.6264194 C50.1069643,12.2431129 50.568852,12.0602097 51.0105357,12.1708548" id="Fill-1" fill="#4573D0" mask="url(#mask-2)"></path>
                </g>
                <g id="编组" transform="translate(14.000000, 0.000000)">
                    <mask id="mask-4" fill="white">
                        <use xlink:href="#path-3"></use>
                    </mask>
                    <g id="Clip-4"></g>
                    <path d="M1.092,2.338625 C1.092,1.81675 1.51088,1.39425 2.02832,1.39425 L10.49608,1.39425 C10.32584,1.748 10.2284,2.152375 10.2284,2.583 L10.2284,3.801125 L2.02832,3.801125 C1.51088,3.801125 1.092,3.378 1.092,2.85675 L1.092,2.338625 Z M25.97224,1.39425 C26.48968,1.39425 26.90856,1.81675 26.90856,2.338625 L26.90856,2.85675 C26.90856,3.378 26.48968,3.801125 25.97224,3.801125 L17.77104,3.801125 L17.77104,2.583 C17.77104,2.152375 17.67416,1.748 17.50392,1.39425 L25.97224,1.39425 Z M1.45992,4.492375 L10.2284,4.492375 L10.2284,4.694875 C10.2284,4.8655 10.35272,5.00425 10.50672,5.00425 L17.49384,5.00425 C17.64672,5.00425 17.77104,4.8655 17.77104,4.694875 L17.77104,4.492375 L26.53952,4.492375 C27.17512,4.492375 27.68976,3.918 27.68976,3.20925 L27.68976,1.986125 C27.68976,1.277375 27.17512,0.702375 26.53952,0.702375 L17.0128,0.702375 C16.61576,0.309875 16.09328,0.0705 15.52096,0.0705 L12.4796,0.0705 C11.90672,0.0705 11.3848,0.309875 10.98776,0.702375 L1.45992,0.702375 C0.82488,0.702375 0.31024,1.277375 0.31024,1.98675 L0.31024,3.20925 C0.31024,3.918 0.82488,4.492375 1.45992,4.492375 L1.45992,4.492375 Z" id="Fill-3" fill="#4573D0" mask="url(#mask-4)"></path>
                </g>
            </g>
        </g>
    </g>
</svg>